<svg width="36" height="36" viewBox="0 0 36 36" fill="none" xmlns="http://www.w3.org/2000/svg">
<path d="M14.3693 25C14.5732 25 14.7385 24.8347 14.7385 24.6307C14.7385 24.4268 14.5732 24.2615 14.3693 24.2615C14.1653 24.2615 14 24.4268 14 24.6307C14 24.8347 14.1653 25 14.3693 25Z" fill="#FFC107" stroke="#FFC107" stroke-width="0.576"/>
<path d="M14.3555 22.3914V12" stroke="#FFC107" stroke-width="0.576" stroke-linecap="round" stroke-linejoin="round"/>
<path d="M21.3611 25C21.5605 25 21.7222 24.8347 21.7222 24.6307C21.7222 24.4268 21.5605 24.2615 21.3611 24.2615C21.1617 24.2615 21 24.4268 21 24.6307C21 24.8347 21.1617 25 21.3611 25Z" fill="#FFC107" stroke="#FFC107" stroke-width="0.576"/>
<path d="M21.3477 22.3914V12" stroke="#FFC107" stroke-width="0.576" stroke-linecap="round" stroke-linejoin="round"/>
<path d="M17.9993 35.2709C27.3997 35.2709 35.0202 27.6504 35.0202 18.2501C35.0202 8.84974 27.3997 1.22925 17.9993 1.22925C8.599 1.22925 0.978516 8.84974 0.978516 18.2501C0.978516 27.6504 8.599 35.2709 17.9993 35.2709Z" stroke="#FFC107" stroke-width="0.576" stroke-linecap="round" stroke-linejoin="round"/>
</svg>
