<svg width="36" height="36" viewBox="0 0 36 36" fill="none" xmlns="http://www.w3.org/2000/svg">
<path d="M17.8611 24.1477C18.0605 24.1477 18.2222 23.9824 18.2222 23.7784C18.2222 23.5745 18.0605 23.4092 17.8611 23.4092C17.6617 23.4092 17.5 23.5745 17.5 23.7784C17.5 23.9824 17.6617 24.1477 17.8611 24.1477Z" fill="#EA3865" stroke="#EA3865" stroke-width="0.576"/>
<path d="M17.8477 21.5391V11.1477" stroke="#EA3865" stroke-width="0.576" stroke-linecap="round" stroke-linejoin="round"/>
<path d="M12.3693 24C12.5732 24 12.7385 23.8347 12.7385 23.6307C12.7385 23.4268 12.5732 23.2615 12.3693 23.2615C12.1653 23.2615 12 23.4268 12 23.6307C12 23.8347 12.1653 24 12.3693 24Z" fill="#EA3865" stroke="#EA3865" stroke-width="0.576"/>
<path d="M12.3555 21.3914V11" stroke="#EA3865" stroke-width="0.576" stroke-linecap="round" stroke-linejoin="round"/>
<path d="M23.3693 24C23.5732 24 23.7385 23.8347 23.7385 23.6307C23.7385 23.4268 23.5732 23.2615 23.3693 23.2615C23.1653 23.2615 23 23.4268 23 23.6307C23 23.8347 23.1653 24 23.3693 24Z" fill="#EA3865" stroke="#EA3865" stroke-width="0.576"/>
<path d="M23.3555 21.3914V11" stroke="#EA3865" stroke-width="0.576" stroke-linecap="round" stroke-linejoin="round"/>
<path d="M17.9993 35.2709C27.3997 35.2709 35.0202 27.6504 35.0202 18.2501C35.0202 8.84974 27.3997 1.22925 17.9993 1.22925C8.599 1.22925 0.978516 8.84974 0.978516 18.2501C0.978516 27.6504 8.599 35.2709 17.9993 35.2709Z" stroke="#EA3865" stroke-width="0.576" stroke-linecap="round" stroke-linejoin="round"/>
</svg>
